<?xml version="1.0" encoding="utf-8"?>
<!-- Generator: Adobe Illustrator 16.0.0, SVG Export Plug-In . SVG Version: 6.00 Build 0)  -->
<!DOCTYPE svg PUBLIC "-//W3C//DTD SVG 1.1//EN" "http://www.w3.org/Graphics/SVG/1.1/DTD/svg11.dtd">
<svg version="1.1" id="Layer_1" xmlns="http://www.w3.org/2000/svg" xmlns:xlink="http://www.w3.org/1999/xlink" x="0px" y="0px"
	 width="841.89px" height="595.28px" viewBox="0 0 841.89 595.28" enable-background="new 0 0 841.89 595.28" xml:space="preserve">
<g>
	<path fill="#FF6600" d="M602.546,503.77c0,5.602-4.536,10.139-10.135,10.139H180.147c-5.599,0-10.138-4.537-10.138-10.139V91.509
		c0-5.599,4.539-10.138,10.138-10.138h412.264c5.599,0,10.135,4.539,10.135,10.138V503.77z"/>
	<g>
		<path fill="#231F20" d="M470.102,195.711c-56.292,0-101.924,45.64-101.924,101.932c0,36.089,18.755,67.796,47.057,85.909
			L234.138,372.71c-7.518,0-40.004,26.859-32.489,26.859h268.193c0.017,0,0.032,0,0.05,0c0.07,0,0.142,0,0.21,0
			c56.297,0,101.925-45.641,101.925-101.927C572.026,241.351,526.398,195.711,470.102,195.711z M556.215,290.882h-60.893
			l52.77-30.469C552.56,269.761,555.376,280.045,556.215,290.882z M541.315,248.721l-52.748,30.451l30.453-52.75
			C527.746,232.427,535.312,239.993,541.315,248.721z M476.859,272.417v-60.899c10.837,0.84,21.119,3.656,30.467,8.127
			L476.859,272.417z M463.344,272.407l-30.462-52.765c9.346-4.469,19.625-7.285,30.462-8.125V272.407z M421.184,226.42
			l30.459,52.761l-52.76-30.46C404.89,239.993,412.456,232.427,421.184,226.42z M444.874,290.882l-60.89-0.005
			c0.84-10.836,3.656-21.116,8.124-30.464L444.874,290.882z M383.697,297.61v0.059c0-0.01-0.002-0.019-0.002-0.026
			C383.695,297.633,383.697,297.619,383.697,297.61z M444.881,304.397l-52.773,30.469c-4.47-9.348-7.287-19.632-8.126-30.473
			L444.881,304.397z M398.883,346.563l52.755-30.461l-30.455,52.754C412.456,362.851,404.89,355.286,398.883,346.563z
			 M463.344,322.866v60.889c-10.837-0.836-21.116-3.654-30.462-8.121L463.344,322.866z M476.859,322.858l30.467,52.771
			c-9.346,4.471-19.63,7.285-30.467,8.125V322.858z M519.021,368.856l-30.447-52.746l52.74,30.453
			C535.309,355.286,527.743,362.849,519.021,368.856z M495.32,304.397l60.895,0.005c-0.839,10.837-3.655,21.116-8.123,30.464
			L495.32,304.397z"/>
		<polygon fill="#231F20" points="251.76,195.716 413.246,205.012 251.76,214.301 		"/>
		<polygon fill="#231F20" points="225.478,264.539 338.466,272.562 225.478,280.588 		"/>
	</g>
</g>
</svg>
