<?xml version="1.0" encoding="UTF-8" standalone="no"?>
<!-- Created with Inkscape (http://www.inkscape.org/) -->

<svg
   width="48"
   height="48"
   viewBox="0 0 12.7 12.7"
   version="1.1"
   id="svg5"
   inkscape:version="1.1.2 (0a00cf5339, 2022-02-04)"
   sodipodi:docname="inc_map.svg"
   xmlns:inkscape="http://www.inkscape.org/namespaces/inkscape"
   xmlns:sodipodi="http://sodipodi.sourceforge.net/DTD/sodipodi-0.dtd"
   xmlns="http://www.w3.org/2000/svg"
   xmlns:svg="http://www.w3.org/2000/svg">
  <sodipodi:namedview
     id="namedview7"
     pagecolor="#ffffff"
     bordercolor="#666666"
     borderopacity="1.0"
     inkscape:pageshadow="2"
     inkscape:pageopacity="0.0"
     inkscape:pagecheckerboard="0"
     inkscape:document-units="mm"
     showgrid="true"
     units="px"
     objecttolerance="10000"
     guidetolerance="10000"
     inkscape:snap-perpendicular="true"
     inkscape:snap-tangential="true"
     inkscape:zoom="9.8238688"
     inkscape:cx="44.3817"
     inkscape:cy="29.876213"
     inkscape:window-width="2521"
     inkscape:window-height="1082"
     inkscape:window-x="1018"
     inkscape:window-y="70"
     inkscape:window-maximized="0"
     inkscape:current-layer="layer1">
    <inkscape:grid
       type="xygrid"
       id="grid934" />
  </sodipodi:namedview>
  <defs
     id="defs2" />
  <g
     inkscape:label="Ebene 1"
     inkscape:groupmode="layer"
     id="layer1">
    <path
       style="fill:none;stroke:#000000;stroke-width:1;stroke-linecap:butt;stroke-linejoin:miter;stroke-opacity:1;stroke-miterlimit:4;stroke-dasharray:none"
       d="M 12.170833,0 C 12.128608,0.72947209 11.815992,1.4007872 11.638547,2.1070495 11.427332,2.9477194 11.127089,3.9704005 10.489497,4.649251 10.275933,4.8766328 9.9833686,5.0524217 9.7244268,5.2361002 9.3833292,5.478054 8.910856,5.9735921 8.4987724,6.1489762 c -0.045678,0.019442 -0.1075288,-0.019442 -0.1532045,0 C 8.1923632,6.2141823 8.2306636,6.2793862 8.1157582,6.3445923 7.3615935,6.7725597 6.4932972,7.186052 5.9451861,7.6785464 5.8116912,7.798495 5.5313639,7.9177705 5.3373062,8.000363 5.0508753,8.1222677 4.8158197,8.3492049 4.5750502,8.5199925 4.4606695,8.6011261 4.297315,8.6259926 4.1920332,8.7156086 c -0.01806,0.015377 0.01806,0.049838 0,0.065206 C 4.0976501,8.8611557 4.0223881,8.8096273 3.9631965,8.910397 3.8778804,9.0556405 3.6952935,9.1546514 3.58018,9.3016296 3.3330971,9.6171097 3.0093037,9.9060717 2.7375429,10.214507 2.5575133,10.41883 2.2921146,10.522412 2.1247164,10.736149 1.8477375,11.089797 2.2117074,10.61052 1.9724543,10.801359 1.726185,10.997798 1.4164424,11.313991 1.2403464,11.61573 c -0.1763718,0.302211 0.024972,-0.170487 -0.1512889,0.129605 -0.11725662,0.199637 -0.14581261,0.239588 -0.40855459,0.349405 -0.0665409,0.02782 -0.31012989,0.05155 -0.15133624,0.0761"
       id="path2042" />
    <path
       style="fill:#ffffff;stroke:#000000;stroke-width:1;stroke-linecap:butt;stroke-linejoin:miter;stroke-miterlimit:4;stroke-dasharray:none;stroke-opacity:1"
       d="M 3.96875,1.8520833 C 3.4457345,2.1946056 2.9070909,2.5283873 2.3997034,2.8796508 2.1278056,3.0678851 1.9193429,3.2608061 1.6996346,3.4630501 1.4751477,3.6696934 0.9025752,4.0079299 0.8319178,4.2680938 0.7523453,4.5610867 0.7440389,4.861319 0.7002553,5.1568728 c -0.01208,0.081517 0.044026,0.2145599 0,0.293937 -0.170955,0.3082158 -0.24192528,1.0290436 5.604e-4,1.3266408 0.061067,0.074949 0.9314742,0.3744675 1.0909476,0.4008311 0.064491,0.010663 0.1335772,0 0.2003655,0 0.3798138,0 0.3531901,-0.04104 0.6583137,-0.1346634 0.1655253,-0.050789 0.3938793,-0.094009 0.5705379,-0.1346637 0.033371,-0.00768 0.2617962,-0.035275 0.3072131,-0.053865 0.52409,-0.214528 0.7204635,-0.5816235 1.0549838,-0.8895535 0.068856,-0.063383 0.187115,-0.1014656 0.2633251,-0.1615962 0.05237,-0.041321 0.079292,-0.093343 0.1316629,-0.1346636 C 5.3676984,5.3619305 5.9852087,5.2199722 6.3825669,4.9151606 6.8724885,4.5393449 7.1849502,4.168198 7.391161,3.7041935 7.430416,3.6158665 7.426554,3.5205909 7.478936,3.4348665 7.497458,3.4045585 7.543123,3.3830205 7.566711,3.3540685 7.6985568,3.1922486 7.8120282,3.0111315 7.9178124,2.8423472 8.1796113,2.4246339 8.2569758,1.938147 8.1372504,1.4991149 c -0.019691,-0.072204 0.044924,-0.186907 0,-0.2549936 -0.00427,-0.00645 -0.7761169,-0.049316 -0.8428416,-0.053865 -0.7302571,-0.049793 -1.6871077,0.010679 -2.4129317,0.066357 -0.2465041,0.018909 -0.8743508,0.3160364 -0.94527,0.4459299 -0.016321,0.029895 0.031937,0.1476253 0.032543,0.1495401 z"
       id="path2079" />
    <rect
       style="fill:#ffffff;fill-opacity:0.709804;stroke:#000000;stroke-width:1;stroke-miterlimit:4;stroke-dasharray:none"
       id="rect1530"
       width="6.3499999"
       height="3.175"
       x="-3.7041643"
       y="11.906249"
       transform="rotate(-36.869886)" />
  </g>
</svg>
