<?xml version="1.0" encoding="UTF-8" standalone="no"?>
<svg
   xmlns:dc="http://purl.org/dc/elements/1.1/"
   xmlns:cc="http://creativecommons.org/ns#"
   xmlns:rdf="http://www.w3.org/1999/02/22-rdf-syntax-ns#"
   xmlns:svg="http://www.w3.org/2000/svg"
   xmlns="http://www.w3.org/2000/svg"
   xmlns:sodipodi="http://sodipodi.sourceforge.net/DTD/sodipodi-0.dtd"
   xmlns:inkscape="http://www.inkscape.org/namespaces/inkscape"
   version="1.1"
   id="Layer_1"
   x="0px"
   y="0px"
   width="500"
   height="500"
   viewBox="0 0 499.99999 499.99998"
   enable-background="new 0 0 841.89 595.28"
   xml:space="preserve"
   sodipodi:docname="icon.svg"
   inkscape:version="1.0.2 (e86c870879, 2021-01-15)"><metadata
   id="metadata82"><rdf:RDF><cc:Work
       rdf:about=""><dc:format>image/svg+xml</dc:format><dc:type
         rdf:resource="http://purl.org/dc/dcmitype/StillImage" /><dc:title></dc:title></cc:Work></rdf:RDF></metadata><defs
   id="defs80" /><sodipodi:namedview
   pagecolor="#ffffff"
   bordercolor="#666666"
   borderopacity="1"
   objecttolerance="10"
   gridtolerance="10"
   guidetolerance="10"
   inkscape:pageopacity="0"
   inkscape:pageshadow="2"
   inkscape:window-width="2235"
   inkscape:window-height="1156"
   id="namedview78"
   showgrid="false"
   inkscape:pagecheckerboard="false"
   showborder="true"
   inkscape:showpageshadow="true"
   inkscape:zoom="1.3921058"
   inkscape:cx="249.62183"
   inkscape:cy="297.64001"
   inkscape:window-x="2839"
   inkscape:window-y="194"
   inkscape:window-maximized="0"
   inkscape:current-layer="Layer_1" />
<g
   id="g75"
   transform="translate(-136.2775,-47.64)">
	<path
   fill="#ff6600"
   d="m 602.546,503.77 c 0,5.602 -4.536,10.139 -10.135,10.139 H 180.147 c -5.599,0 -10.138,-4.537 -10.138,-10.139 V 91.509 c 0,-5.599 4.539,-10.138 10.138,-10.138 h 412.264 c 5.599,0 10.135,4.539 10.135,10.138 z"
   id="path65" />
	<g
   id="g73">
		<path
   fill="#231f20"
   d="m 470.102,195.711 c -56.292,0 -101.924,45.64 -101.924,101.932 0,36.089 18.755,67.796 47.057,85.909 L 234.138,372.71 c -7.518,0 -40.004,26.859 -32.489,26.859 h 268.193 c 0.017,0 0.032,0 0.05,0 0.07,0 0.142,0 0.21,0 56.297,0 101.925,-45.641 101.925,-101.927 -0.001,-56.291 -45.629,-101.931 -101.925,-101.931 z m 86.113,95.171 h -60.893 l 52.77,-30.469 c 4.468,9.348 7.284,19.632 8.123,30.469 z m -14.9,-42.161 -52.748,30.451 30.453,-52.75 c 8.726,6.005 16.292,13.571 22.295,22.299 z m -64.456,23.696 v -60.899 c 10.837,0.84 21.119,3.656 30.467,8.127 z m -13.515,-0.01 -30.462,-52.765 c 9.346,-4.469 19.625,-7.285 30.462,-8.125 z m -42.16,-45.987 30.459,52.761 -52.76,-30.46 c 6.007,-8.728 13.573,-16.294 22.301,-22.301 z m 23.69,64.462 -60.89,-0.005 c 0.84,-10.836 3.656,-21.116 8.124,-30.464 z m -61.177,6.728 v 0.059 c 0,-0.01 -0.002,-0.019 -0.002,-0.026 0,-0.01 0.002,-0.024 0.002,-0.033 z m 61.184,6.787 -52.773,30.469 c -4.47,-9.348 -7.287,-19.632 -8.126,-30.473 z m -45.998,42.166 52.755,-30.461 -30.455,52.754 c -8.727,-6.005 -16.293,-13.57 -22.3,-22.293 z m 64.461,-23.697 v 60.889 c -10.837,-0.836 -21.116,-3.654 -30.462,-8.121 z m 13.515,-0.008 30.467,52.771 c -9.346,4.471 -19.63,7.285 -30.467,8.125 z m 42.162,45.998 -30.447,-52.746 52.74,30.453 c -6.005,8.723 -13.571,16.286 -22.293,22.293 z m -23.701,-64.459 60.895,0.005 c -0.839,10.837 -3.655,21.116 -8.123,30.464 z"
   id="path67" />
		<polygon
   fill="#231f20"
   points="251.76,195.716 413.246,205.012 251.76,214.301 "
   id="polygon69" />
		<polygon
   fill="#231f20"
   points="225.478,264.539 338.466,272.562 225.478,280.588 "
   id="polygon71" />
	</g>
</g>
</svg>
