<?xml version="1.0" encoding="UTF-8" standalone="no"?>
<svg
   height="16px"
   viewBox="0 0 16 16"
   width="16px"
   version="1.1"
   id="svg4"
   sodipodi:docname="help-about-symbolic.svg"
   inkscape:version="1.1.2 (0a00cf5339, 2022-02-04)"
   xmlns:inkscape="http://www.inkscape.org/namespaces/inkscape"
   xmlns:sodipodi="http://sodipodi.sourceforge.net/DTD/sodipodi-0.dtd"
   xmlns="http://www.w3.org/2000/svg"
   xmlns:svg="http://www.w3.org/2000/svg">
  <defs
     id="defs8" />
  <sodipodi:namedview
     id="namedview6"
     pagecolor="#ffffff"
     bordercolor="#666666"
     borderopacity="1.0"
     inkscape:pageshadow="2"
     inkscape:pageopacity="0.0"
     inkscape:pagecheckerboard="0"
     showgrid="false"
     inkscape:zoom="54.5625"
     inkscape:cx="8"
     inkscape:cy="7.9908362"
     inkscape:window-width="2399"
     inkscape:window-height="1229"
     inkscape:window-x="1099"
     inkscape:window-y="135"
     inkscape:window-maximized="0"
     inkscape:current-layer="svg4" />
  <path
     d="m 8.7181784,0.05936337 c -1.2964051,0 -2.3482043,0.96962243 -2.3482043,2.16473953 0,1.1951171 1.0517992,2.1647395 2.3482043,2.1647395 1.2964046,0 2.3482046,-0.9696224 2.3482046,-2.1647395 0,-1.1951171 -1.0518,-2.16473953 -2.3482046,-2.16473953 z M 5.5383173,6.0725288 c -0.5544349,0.02255 -0.9947244,0.4434714 -0.9947244,0.9621064 0,0.5336689 0.4647483,0.9621063 1.0436464,0.9621063 H 6.6308857 V 13.76938 H 5.5872393 c -0.5788981,0 -1.0436464,0.428438 -1.0436464,0.962107 0,0.533669 0.4647483,0.962106 1.0436464,0.962106 h 6.2618777 c 0.578899,0 1.043647,-0.428437 1.043647,-0.962106 0,-0.533669 -0.464748,-0.962107 -1.043647,-0.962107 H 10.805471 L 10.680124,6.0483132 5.5872393,6.0725288 Z"
     fill="#2e3436"
     id="path2"
     sodipodi:nodetypes="ssssscssccsssssscccc"
     style="stroke-width:2.0041" />
</svg>
